/* XPM */
static char *Pixmap[] = {
"24 24 16 2",
"00 c black",
"01 c #800000",
"02 c #008000",
"03 c #808000",
"04 c #000080",
"05 c none",
"06 c #008080",
"07 c #C0C0C0",
"08 c #808080",
"09 c red",
"10 c green",
"11 c yellow",
"12 c blue",
"13 c magenta",
"14 c cyan",
"15 c Gray100",
"050505050505050505050505050505050505050505050505",
"050500080000040400040400040400000704040404040405",
"050408080708121212121212121212040815151515150704",
"050408080700120412041204120412040815151515150404",
"050400070808080808080808080808030815151515150404",
"050408151515151515151515151515080815151515150704",
"050408151507070707070708151515080815151515150404",
"050408150707070708070708081515080815151515150404",
"050408070707070800080707080815080815151515150704",
"050408150707070808080707080815080815151515150404",
"050408070707080807070007080815080815151515150704",
"050408150707080807080807030807080815151515150404",
"050408150707080807080808080707000807151515150704",
"050408071508080807080808081515070008070715150404",
"050408151515080008000808040715080808150807150404",
"050408151515151515151515080007080707070707080404",
"050408070707070707070707070800070707070707080704",
"050408000800080008000803040308070707070707080804",
"050415151515071515150715070808080707070707080704",
"050415151515151515151515150708080707070707000704",
"050415151515151515151515151508080808080807080704",
"050415151515151515151515151515080800080008070804",
"050404040404040404040404040404040707070708070704",
"050504040404040404040404040404040404040404040405"
};
