/* XPM */
static char *Pixmap[] = {
"24 24 16 2",
"00 c black",
"01 c #800000",
"02 c #008000",
"03 c #808000",
"04 c #000080",
"05 c none",
"06 c #008080",
"07 c #C0C0C0",
"08 c #808080",
"09 c red",
"10 c green",
"11 c yellow",
"12 c blue",
"13 c magenta",
"14 c cyan",
"15 c Gray100",
"050505050505050505050505121515050505050505050505",
"050504040404040404040404121515040404040404040405",
"050411111111111111111111121515111111111111110404",
"050411111111111111111111151512111111111111110404",
"050403030303030303030303151512030303030303030404",
"050411111111111111111212151512111111111111110404",
"050411111111111111121215151515111111111111110404",
"050412121111111111121515121215121212111111110404",
"050412121212111112121512111215151515121111110404",
"050412141215121515151212111112151212151515110404",
"050412151515151512151201111112151512121212110404",
"050412151212121212151211111111121515121311110404",
"050411111111111214121111111111121512151212110404",
"050411111111121215121201111111121512151515121204",
"050411111112151515151212111111121512121215151212",
"050411111112121211121515111112151515111215121312",
"050411121214120111121215111112151215111215110404",
"050411121515121111121415111112121215111215120404",
"050412151212011212151512111215121415121212151512",
"050412121201111215151212111215121212121112121515",
"121214120111111215121201111215111112120811121212",
"121512121111111215111111111111111112151212110404",
"121512010404041215040404040404040404151512010404",
"051512040404041215040404040404040404121512040405"
};
