/* XPM */
static char *Pixmap[] = {
"24 24 16 2",
"00 c black",
"01 c #800000",
"02 c #008000",
"03 c #808000",
"04 c #000080",
"05 c #800080",
"06 c #008080",
"07 c #C0C0C0",
"08 c #808080",
"09 c red",
"10 c green",
"11 c yellow",
"12 c blue",
"13 c magenta",
"14 c cyan",
"15 c Gray100",
"050505050505050505050505050505050505050505050505",
"050504040404040000000404040404040404040404040405",
"050415151515150000001511111111111115151515150404",
"050415151515151111111115151515151111151515150404",
"050415151515111111111515151515151111151515150404",
"050415151515111111111515151511111111111515150404",
"050415151515111111111111111111111111111515150404",
"050415151511111111111111111111111111111515150404",
"050415151511080101010101010101030103111515150404",
"050415151511080000000000000000000001111515150404",
"050415151511080000000000000000000001111515150404",
"050415151511080000000000000000000003111515150404",
"050415151511080000000000000000000003111515150404",
"050415151511080808080808080808080803111515150404",
"050415151511080808080808080808080003111515150404",
"050415151511080800000008080800080003111515150404",
"050415151511080000000000000000000003111515150404",
"050415151511080000000000000000000003111515150404",
"050415151511080000000000000000000003111515150404",
"050415151511080000000000000000000103111515150404",
"050415151511110808080808080808070711111515150404",
"050415151511111111111111111111111111111515150404",
"050404040404111111111111111111111111040404040404",
"050504040404040404040404040404040404040404040405"
};
