/* XPM */
static char *Pixmap[] = {
"24 24 16 2",
"00 c black",
"01 c #800000",
"02 c #008000",
"03 c #808000",
"04 c #000080",
"05 c #800080",
"06 c #008080",
"07 c #C0C0C0",
"08 c #808080",
"09 c red",
"10 c green",
"11 c yellow",
"12 c blue",
"13 c magenta",
"14 c cyan",
"15 c Gray100",
"050505050505050505050505050505050505050505050505",
"050504040404040404040404040404040404040404040405",
"050415151515151515151515151515151515151515150404",
"050415151515150215151515151515151515151515150404",
"050403030303020203030303030303030303030303030404",
"050415151502020215151515151515151515151515150404",
"050415150202020202020202020202151515151515150404",
"050415150202020202020202020202021515151515150404",
"050415151502020215151515151515020215151515150404",
"050415151515020215151515151515150202151515150404",
"050415151515150215151515151515151502021515150404",
"050415151515151515151509090909090909090909150404",
"050415151515151515151509090909090909090909150404",
"050415150215151515151515151515151502021515150404",
"050415150202151515151515151515150202151515150404",
"050415150202021515151515151515020215151515150404",
"050415150202020202020202020202021515151515150404",
"050415150202020202020202020202151515151515150404",
"050415150202021515151515151515151515151515150404",
"050415150202151515151515151515151515151515150404",
"050415150215151515151515151515151515151515150404",
"050415151515151515151515151515151515151515150404",
"050404040404040404040404040404040404040404040404",
"050504040404040404040404040404040404040404040405"
};
