/* XPM */
static char *Pixmap[] = {
"24 24 16 2",
"00 c black",
"01 c #800000",
"02 c #008000",
"03 c #808000",
"04 c #000080",
"05 c #800080",
"06 c #008080",
"07 c #C0C0C0",
"08 c #808080",
"09 c red",
"10 c green",
"11 c yellow",
"12 c blue",
"13 c magenta",
"14 c cyan",
"15 c Gray100",
"050505050505050505050500000005050505050505050505",
"050504040404040404040400080404040404040404040405",
"050415151515151515150306061515151515151515150404",
"050415151515151515151506060615151515151515150404",
"050415151515151515151500061206151515151515150404",
"050415151515150715151504060606081515151515150404",
"050415151515150800150006040604071515151515150404",
"050415151515151508000604060600151515151515150404",
"050415151515150006060606040015151515151515150404",
"050415151515040606120606060015151515151515150404",
"050415151500060606060612060815151515151515150404",
"050415151506060406120606060300151515151515150404",
"050415150004060406060606120015151515151515150404",
"050415150603060400061207070015001508151515150404",
"050415150608060606060406060003150002031515150404",
"050415150006040612060606060606080000151515150404",
"050415150006060406060604061206060000151515150404",
"050415151504060806060606060606060606000815150404",
"050415151500060800060406040006040612060615150404",
"050415151515060002060408060604000606060615150404",
"050415151515030606020006060604000604040615150404",
"050415151515150302000008040606061206061515150404",
"050404040404040404000606060604040608040404040404",
"050504040404040404040404040404040404040404040405"
};
