/* XPM */
static char *Pixmap[] = {
"24 24 16 2",
"00 c black",
"01 c #800000",
"02 c #008000",
"03 c #808000",
"04 c #000080",
"05 c #800080",
"06 c #008080",
"07 c #C0C0C0",
"08 c #808080",
"09 c red",
"10 c green",
"11 c yellow",
"12 c blue",
"13 c magenta",
"14 c cyan",
"15 c Gray100",
"050505070707070707070707070707070707070708050505",
"050504071515151515151515151515151515151507040405",
"050415071507071507071507071507071507071507150404",
"050415071508070708070807070707070707081507150404",
"050403071507080708080708080708070815070707030404",
"050415071508080707150708070708070708081507150404",
"050415071515151515151515151515151515151507150404",
"050415071515151515151515151507150715151507150404",
"050415071515070715080807070808070807151507150404",
"050415071515150715080708070807150815151507150404",
"050415071515070807080708070807150815151507150404",
"050415071515151515151515151515151515151507150404",
"050415071515150804030407150700080815151507150404",
"050415071515150007070715150015070015151507150404",
"050415071515150015151515070815150808151507150404",
"050415071515070008000815080815150808151507150404",
"050415071515150815150007080815150808151507150404",
"050415071515151515150808080815150808151507150404",
"050415071515080815150808070015150808151507150404",
"050415071515150008080015150808080015151507150404",
"050415071515151508071515151508071515151507150404",
"050415071515151515151515151515151515151507150404",
"050404071515151515151515151515151515151507040404",
"050504070707070707070707070707070707070707040405"
};
