/* XPM */
static char *Pixmap[] = {
"24 24 16 2",
"00 c black",
"01 c #800000",
"02 c #008000",
"03 c #808000",
"04 c #000080",
"05 c #800080",
"06 c #008080",
"07 c #C0C0C0",
"08 c #808080",
"09 c red",
"10 c green",
"11 c yellow",
"12 c blue",
"13 c magenta",
"14 c cyan",
"15 c Gray100",
"050500000000000000050505050505050505050505050505",
"050500151515151500040404040404040404040404040405",
"050400151414141500080808080808151515151515150404",
"050400151414141500150708070707080715151515150404",
"050400150808080800080707070708070707151515150404",
"050400000000000000070708080815080708151515150404",
"000000151507070700000015070707150815081515150404",
"001515070707070707080008080707080707081515150404",
"001508080808080808080007070707080707081515150404",
"000000000000000000000008070815080708081515150404",
"050415151508070708150708081507080707081515150404",
"050415151508150807081500001508150815081515150404",
"050415151507070707150800000715070708071515150404",
"050415151515080708070800000708081508151515150404",
"050415151515150807150000000815070815151515150404",
"050415151515151515070008080015071515151515150404",
"050415151515151515080000000015151515151515150404",
"050415151515151515000008070007151515151515150404",
"050415151515151507000700080008151515151515150404",
"050415151515151507000800080008151515151515150404",
"050415151515151508000808150000071515151515150404",
"050415151515151500080800080800071515151515150404",
"050404040404040700070800001500080404040404040404",
"050504040404040700080808070008080404040404040405"
};
