/* XPM */
static char *Pixmap[] = {
"24 24 16 2",
"00 c black",
"01 c #800000",
"02 c #008000",
"03 c #808000",
"04 c #000080",
"05 c none",
"06 c #008080",
"07 c #C0C0C0",
"08 c #808080",
"09 c red",
"10 c green",
"11 c yellow",
"12 c blue",
"13 c magenta",
"14 c cyan",
"15 c Gray100",
"050505050505050505050505050505050505050505050505",
"050504040404040404040404040404040404040404040405",
"050415151515151515151515151515151515151515150404",
"050415151515151515151515151515151515151515150404",
"050403030303030003000300030003000303030303030404",
"050415151515001500080008000800080015151515150404",
"050415151500151500080008000800080015151515150404",
"050415151500150000150015001500150000151515150404",
"050415151500150015151515151515151500151515150404",
"050415151500150015141414141414141500151515150404",
"050415151500150015150808150815151500151515150404",
"050415151500150015141414141414141500151515150404",
"050415151500150015150815080808151500151515150404",
"050415151500150015141414141414141500151515150404",
"050415151500150015150808081515151500151515150404",
"050415151500150015141414141414141500151515150404",
"050415151500150015151515151515151500151515150404",
"050415151500150015141414141414141500151515150404",
"050415151515000015151515151515151500151515150404",
"050415151515151500000000000000000015151515150404",
"050415151515151515151515151515151515151515150404",
"050415151515151515151515151515151515151515150404",
"050404040404040404040404040404040404040404040404",
"050504040404040404040404040404040404040404040405"
};
