/* XPM */
static char *Pixmap[] = {
"24 24 16 2",
"00 c black",
"01 c #800000",
"02 c #008000",
"03 c #808000",
"04 c #000080",
"05 c #800080",
"06 c #008080",
"07 c #C0C0C0",
"08 c #808080",
"09 c red",
"10 c green",
"11 c yellow",
"12 c blue",
"13 c magenta",
"14 c cyan",
"15 c Gray100",
"050505050505050505050505050505050505050505050505",
"050504040404040404040404040404040404040404040405",
"050415151515151515151515151515151515151515150404",
"050415151515151515151515151515151515151515150404",
"050403030303030303030303030303030303030303030404",
"050415151515151507151515151515151515151515150404",
"050415151515151507070715150707151515151515150404",
"050415151515151507080808080708151515151515150404",
"050415151515151507080803030808071515151515150404",
"050415151515151507090101010108071515151515150404",
"050415151515150708080809090101081515151515150404",
"050415151507080708010109010101080807151515150404",
"050415151508070801010109010101080708151515150404",
"050415150707070808000909090100030708071515150404",
"050415151515150808010101010108080807071515150404",
"050415151515150807080000000008070808151515150404",
"050415151515080707150708070807151508151515150404",
"050415151515150707151515151515151515151515150404",
"050415151515151515151515151515151515151515150404",
"050415151515151515151515151515151515151515150404",
"050415151515151515151515151515151515151515150404",
"050415151515151515151515151515151515151515150404",
"050404040404040404040404040404040404040404040404",
"050504040404040404040404040404040404040404040405"
};
