/* XPM */
static char *Pixmap[] = {
"24 24 16 2",
"00 c black",
"01 c #800000",
"02 c #008000",
"03 c #808000",
"04 c #000080",
"05 c #800080",
"06 c #008080",
"07 c #C0C0C0",
"08 c #808080",
"09 c red",
"10 c green",
"11 c yellow",
"12 c blue",
"13 c magenta",
"14 c cyan",
"15 c Gray100",
"050505050505050505050500000005050505050505050505",
"050504040404040404040400080404040404040404040405",
"050411111111111111110306061111111111111111110404",
"050411111111111111111106060611111111111111110404",
"050403030303030303030300061206030303030303030404",
"050411111111110711111104060606081111111111110404",
"050411111111110800110006040604071111111111110404",
"050411111111111108000604060600111111111111110404",
"050411111111110006060606040011111111111111110404",
"050411111111040606120606060011111111111111110404",
"050411111100060606060612060811111111111111110404",
"050411111106060406120606060300111111111111110404",
"050411110004060406060606120011111111111111110404",
"050411110603060400061207070011001108111111110404",
"050411110608060606060406060003150002031111110404",
"050411110006040612060606060606080000111111110404",
"050411110006060406060604061206060000111111110404",
"050411111104060806060606060606060606000811110404",
"050411111100060800060406040006040612060611110404",
"050411111111060002060408060604000606060611110404",
"050411111111030606020006060604000604040611110404",
"050411111111110302000008040606061206061111110404",
"050404040404040404000606060604040608040404040404",
"050504040404040404040404040404040404040404040405"
};
