/* XPM */
static char *Pixmap[] = {
"24 24 16 2",
"00 c black",
"01 c #800000",
"02 c #008000",
"03 c #808000",
"04 c #000080",
"05 c #800080",
"06 c #008080",
"07 c #C0C0C0",
"08 c #808080",
"09 c none",
"10 c green",
"11 c yellow",
"12 c blue",
"13 c magenta",
"14 c cyan",
"15 c Gray100",
"090909090708000000000308080709090909090909090909",
"090904070003111111111103030300040404040404040409",
"090415070011111111111111110300081515151515150404",
"090415150003111111111111110300071515151515150404",
"090415150003110311030311110300151515151515150404",
"090415150000000204020802000808151515151515150404",
"090415150700081008100614020115151515151515150404",
"090415150700061410071008020815151515151515150404",
"090415150700100808101408020415151515151515150404",
"090415150700081014081006020815151515151515150404",
"090415150700140810060810040315151515151515150404",
"090415150800100810071008020815151515151515150404",
"090415150800061008101406020515151515151515150404",
"090415150803030006081008100407151515151515150404",
"090415150800111100020810081008081515151515150404",
"090415150003111103000614080610080207081515150404",
"090415150703111111000210081008060600000115150404",
"090415151500111103000806101408020303020007150404",
"090415151515001103000610070202031111030007150404",
"090415151515070000020806100011111111110008150404",
"090415151515150700061008060311111111030007150404",
"090415151515151515070800031111111111000815150404",
"090404040404040404040407000303111101000704040404",
"090904040404040404040404040708000006040404040409"
};
