/* XPM */
static char *Pixmap[] = {
"24 24 16 2",
"00 c black",
"01 c #800000",
"02 c #008000",
"03 c #808000",
"04 c #000080",
"05 c #800080",
"06 c #008080",
"07 c #C0C0C0",
"08 c #808080",
"09 c red",
"10 c green",
"11 c yellow",
"12 c blue",
"13 c magenta",
"14 c cyan",
"15 c Gray100",
"030303030303030303030303030303030303030303030303",
"030304040404040404040404040404040404040404040403",
"030409141409141414141414141414141414091414090404",
"030414091409141414141414141414141414091409140404",
"030414140914091414141414141414141409140914140404",
"030409091409140914141414141414140914091409090404",
"030414140914091409141414141414091409140914140404",
"030414140009000909000000000000090900090014140404",
"030414140007090909090707070709090909070014140404",
"030414140007070709090907070909090707070014140404",
"030414140007070707090907070909070707070014140404",
"030414140007070707070709090707070707070014140404",
"030414140007070707070709090707070707070014140404",
"030414140007070707090907070909070707070014140404",
"030414140007070709090907070909090707070014140404",
"030414140007090909090707070709090909070014140404",
"030414140009000909000000000000090900090014140404",
"030414140914091409141414141414091409140914140404",
"030409091409140914141414141414140914091409090404",
"030414140914091414141414141414141409140914140404",
"030414091409141414141414141414141414091409140404",
"030409141409141414141414141414141414091414090404",
"030404040404040404040404040404040404040404040404",
"030304040404040404040404040404040404040404040403"
};
