/* XPM */
static char *Pixmap[] = {
"24 24 16 2",
"00 c black",
"01 c #800000",
"02 c #008000",
"03 c #808000",
"04 c #000080",
"05 c #800080",
"06 c #008080",
"07 c #C0C0C0",
"08 c #808080",
"09 c red",
"10 c green",
"11 c yellow",
"12 c blue",
"13 c magenta",
"14 c cyan",
"15 c Gray100",
"030303030303030303030303030303030303030303030303",
"030304040404040404040404040404040404040404040403",
"030405050514141414141414141414141414140505050404",
"030414141405050505141414141414050505051414140404",
"030414141414141414050505050505141414141414140404",
"030405050514141414141414141414141414140505050404",
"030414141405050505141414141414050505051414140404",
"030414140000000000050505050505000000000014140404",
"030405050507070707070707070707070707070505050404",
"030414140005050505070707070707050505050014140404",
"030414140007070707050505050505070707070014140404",
"030414140007070707070707070707070707070014140404",
"030414140007070707070707070707070707070014140404",
"030414140007070707050505050505070707070014140404",
"030414140005050505070707070707050505050014140404",
"030405050507070707070707070707070707070505050404",
"030414140000000000050505050505000000000014140404",
"030414141405050505141414141414050505051414140404",
"030405050514141414141414141414141414140505050404",
"030414141414141414050505050505141414141414140404",
"030414141405050505141414141414050505051414140404",
"030405050514141414141414141414141414140505050404",
"030404040404040404040404040404040404040404040404",
"030304040404040404040404040404040404040404040403"
};
