/* XPM */
static char *Pixmap[] = {
"24 24 16 2",
"00 c black",
"01 c #800000",
"02 c #008000",
"03 c #808000",
"04 c #000080",
"05 c none",
"06 c #008080",
"07 c #C0C0C0",
"08 c #808080",
"09 c red",
"10 c green",
"11 c yellow",
"12 c blue",
"13 c magenta",
"14 c cyan",
"15 c Gray100",
"050500000000000000050505050505050505050505050505",
"050500151515151500040404040404040404040404040405",
"050400151414141500151515151515151515151515150404",
"050400151414141500151515151515151515151515150404",
"050400150808080800030303030303030303030315150404",
"050400000000000000111111111111111111110315150404",
"000000151507070700000011111111111111031515150404",
"001515070707070707080003030303111103030303030404",
"001508080808080808080015150311111111111111110404",
"000000000000000000000015031111111111111111110404",
"050415151515151515151515030303030303030303030404",
"050415151515151515151515151515151515151515150404",
"050415151515151515151515151515151515151515150404",
"050415000000000000150000000000150000000000150404",
"050415151500001515150000151515150000150000150404",
"050415151500001515150000151515150000150000150404",
"050415151500001515150000151515150000000000150404",
"050415151500001515150000151515150000151515150404",
"050415151500001515150000151515150000151515150404",
"050415151500001515150000000000150000151515150404",
"050415151515151515151515151515151515151515150404",
"050415151515151515151515151515151515151515150404",
"050404040404040404040404040404040404040404040404",
"050504040404040404040404040404040404040404040405"
};
