/* XPM */
static char *Pixmap[] = {
"24 24 16 2",
"00 c black",
"01 c #800000",
"02 c #008000",
"03 c #808000",
"04 c #000080",
"05 c #800080",
"06 c #008080",
"07 c #C0C0C0",
"08 c #808080",
"09 c red",
"10 c green",
"11 c yellow",
"12 c blue",
"13 c magenta",
"14 c cyan",
"15 c Gray100",
"050505050505050505050505050505050505050505050505",
"050504040404040404040404040404040404040404040405",
"050415151515151515151515151515151515151515150404",
"050403030303030303030303030303030315151515150404",
"050411111111111111111111111111110315151515150404",
"050411111111111111111111111111031515151515150404",
"050403030303030303030311111103151515151515150404",
"050415151515151515031111110303030303030303030404",
"050415151515151503111111111111111111111111110404",
"050415151515150311111111111111111111111111110404",
"050415151515150303030303030303030303030303030404",
"050415151515151515151515151515151515151515150404",
"050415151515151515151515151515151515151515150404",
"050415000000000000150000000000150000000000150404",
"050415151500001515150000151515150000150000150404",
"050415151500001515150000151515150000150000150404",
"050415151500001515150000151515150000000000150404",
"050415151500001515150000151515150000151515150404",
"050415151500001515150000151515150000151515150404",
"050415151500001515150000000000150000151515150404",
"050415151515151515151515151515151515151515150404",
"050415151515151515151515151515151515151515150404",
"050404040404040404040404040404040404040404040404",
"050504040404040404040404040404040404040404040405"
};
