/* XPM */
static char *Pixmap[] = {
"24 24 16 2",
"00 c black",
"01 c #800000",
"02 c #008000",
"03 c #808000",
"04 c #000080",
"05 c #800080",
"06 c #008080",
"07 c #C0C0C0",
"08 c #808080",
"09 c red",
"10 c green",
"11 c yellow",
"12 c blue",
"13 c magenta",
"14 c cyan",
"15 c Gray100",
"030300000000000000030303030303030303030303030303",
"030300151515151500040404040404040404040404040403",
"030400151414141500151515151515151515151515150404",
"030400151414141500151515151515151515151515150404",
"030400150808080800080808080808080808080815150404",
"030400000000000000070707070707070707070815150404",
"000000151507070700000007070707070707081515150404",
"001515070707070707080008080808070708080808080404",
"001508080808080808080015150807070707070707070404",
"000000000000000000000015080707070707070707070404",
"030415151515151515151515080808080808080808080404",
"030415151515151515151515151515151515151515150404",
"030415151515151515151515151515151515151515150404",
"030415000015150000150000000015150000000000150404",
"030415000015150000150000150000150000150000150404",
"030415000015150000150000150000150000150000150404",
"030415000015150000150000150000150000000000150404",
"030415000015150000150000150000150000151515150404",
"030415000015150000150000150000150000151515150404",
"030415150000000015150000000015150000151515150404",
"030415151515151515151515151515151515151515150404",
"030415151515151515151515151515151515151515150404",
"030404040404040404040404040404040404040404040404",
"030304040404040404040404040404040404040404040403"
};
