/* XPM */
static char *Pixmap[] = {
"16 16 16 2",
"00 c black",
"01 c #800000",
"02 c #008000",
"03 c none",
"04 c #000080",
"05 c #800080",
"06 c #008080",
"07 c #808080",
"08 c #C0C0C0",
"09 c red",
"10 c green",
"11 c yellow",
"12 c blue",
"13 c magenta",
"14 c cyan",
"15 c Gray100",
"03030303030303030303030303030303",
"03030303030303030303030303030303",
"03030303030303030303030303030303",
"03030303030300000303030303030303",
"03030303030300090000030303030303",
"03030303030300090909000003030303",
"00000000000000090909090900000303",
"00090909090909090909090909090000",
"00000000000000090909090900000303",
"03030303030300090909000003030303",
"03030303030300090000030303030303",
"03030303030300000303030303030303",
"03030303030303030303030303030303",
"03030303030303030303030303030303",
"03030303030303030303030303030303",
"03030303030303030303030303030303"
};
