/* XPM */
static char *Pixmap[] = {
"16 16 16 2",
"00 c black",
"01 c #800000",
"02 c #008000",
"03 c none",
"04 c #000080",
"05 c #800080",
"06 c #008080",
"07 c #808080",
"08 c #C0C0C0",
"09 c red",
"10 c green",
"11 c yellow",
"12 c blue",
"13 c magenta",
"14 c cyan",
"15 c Gray100",
"03030303030303030303030303030303",
"03030303030303030303030303030303",
"03030303030303030303030303030303",
"03030303030303030303030303030303",
"03030303030303030000030303030303",
"03030303030300000900030303030303",
"03030303000009090900030303030303",
"03030000090909090900000000000000",
"00000909090909090909090909090900",
"03030000090909090900000000000000",
"03030303000009090900030303030303",
"03030303030300000900030303030303",
"03030303030303030000030303030303",
"03030303030303030303030303030303",
"03030303030303030303030303030303",
"03030303030303030303030303030303"
};
