/* XPM */
static char *Pixmap[] = {
"16 16 16 2",
"00 c black",
"01 c #800000",
"02 c #008000",
"03 c none",
"04 c #000080",
"05 c #800080",
"06 c #008080",
"07 c #808080",
"08 c #C0C0C0",
"09 c red",
"10 c green",
"11 c yellow",
"12 c blue",
"13 c magenta",
"14 c cyan",
"15 c Gray100",
"03030303030307070703030303030303",
"03030303030307150715030303030303",
"03030303030307150715030303030303",
"03030303030307150715030303030303",
"03030303030307150715030303030303",
"03030303030307150715030303030303",
"03030307070707150707070703030303",
"03030307151515150315150715030303",
"03030303070303030303070315030303",
"03030303071503030303071503030303",
"03030303030703030307031503030303",
"03030303030715030307150303030303",
"03030303030307030703150303030303",
"03030303030307150715030303030303",
"03030303030303070315030303030303",
"03030303030303071503030303030303"
};
