/* XPM */
static char *Pixmap[] = {
"16 16 16 2",
"00 c black",
"01 c #800000",
"02 c #008000",
"03 c none",
"04 c #000080",
"05 c #800080",
"06 c #008080",
"07 c #808080",
"08 c #C0C0C0",
"09 c red",
"10 c green",
"11 c yellow",
"12 c blue",
"13 c magenta",
"14 c cyan",
"15 c Gray100",
"03030303030303030303030303030303",
"03030303030303030303030303030303",
"03030303030303030303030303030303",
"03030303030307070303030303030303",
"03030303030307150707030303030303",
"03030303030307150315070703030303",
"07070707070707150303031507070303",
"07151515151515150303030303150707",
"07070707070707030303030307070315",
"03151515151507150303070703151503",
"03030303030307150707031515030303",
"03030303030307070315150303030303",
"03030303030303151503030303030303",
"03030303030303030303030303030303",
"03030303030303030303030303030303",
"03030303030303030303030303030303"
};
