/* XPM */
static char *Pixmap[] = {
"24 24 16 2",
"00 c black",
"01 c #800000",
"02 c #008000",
"03 c #808000",
"04 c #000080",
"05 c none",
"06 c #008080",
"07 c #808080",
"08 c #C0C0C0",
"09 c red",
"10 c green",
"11 c yellow",
"12 c blue",
"13 c magenta",
"14 c cyan",
"15 c Gray100",
"050505050505050505050505050505050505050505050505",
"050504040404040404040404040404040404040404040405",
"050415151515151515151515151515151515151515150404",
"050415151515151515151515151515151515151515150404",
"050415151515151515151515151515151515151515150404",
"050415151515151515151515151515151515151515150404",
"050415151515151515151515151515151515151515150404",
"050415151515151502021015151515150202021515150404",
"050415151515151502021015151515020202021515150404",
"050415151515151502021015021010020202021515150404",
"050415151515151515020215020202150202021515150404",
"050415020202021515020215151002150202021502020204",
"050402020202000015020215020202150702020000020204",
"050400000000001515020715150202151502020800020204",
"050415150200151515020215150202150702020808000204",
"050415020015151515020215150202151502020808020204",
"050402020202020015020215150202151502020202020404",
"050402020202001515000015150200151500020202150404",
"050415151515151515151515151515151515151515150404",
"050415151515151515151515151515151515151515150404",
"050415151515151515151515151515151515151515150404",
"050415151515151515151515151515151515151515150404",
"050404040404040404040404040404040404040404040404",
"050504040404040404040404040404040404040404040405"
};
