/* XPM */
static char *Pixmap[] = {
"24 24 16 2",
"00 c black",
"01 c #800000",
"02 c #008000",
"03 c none",
"04 c #000080",
"05 c #800080",
"06 c #008080",
"07 c #808080",
"08 c #C0C0C0",
"09 c red",
"10 c green",
"11 c yellow",
"12 c blue",
"13 c magenta",
"14 c cyan",
"15 c Gray100",
"030303030303030303030303030303030303030303030303",
"030304040404040404040404040404040404040404040403",
"030415151515151515151515151515151515151515150404",
"030415151515151515151515151515151515151515150404",
"030415151515151515151515151515151515151515150404",
"030415151515151515151515151515151515151515150404",
"030415151515151515151515151515151515151515150404",
"030415151515151515150000000015151515151515150404",
"030008080808080807070815150807080808080807070004",
"030015010101010108010101010115010101010101150704",
"030015010101010115010101010108010101010101010804",
"030015010101080801010101151507010101150101010804",
"030015010101010115010101010108010101010101010804",
"030015090909090908151509090909090909090909150704",
"030015090909000709090909090915090909080807070004",
"030015090909000709090909090907090909081515150404",
"030015151515000707081515080700151515081515150404",
"030415151515151515151515151515151515151515150404",
"030415151515151515151515151515151515151515150404",
"030415151515151515151515151515151515151515150404",
"030415151515151515151515151515151515151515150404",
"030415151515151515151515151515151515151515150404",
"030404040404040404040404040404040404040404040404",
"030304040404040404040404040404040404040404040403"
};
