/* XPM */
static char *Pixmap[] = {
"24 24 16 2",
"00 c black",
"01 c #800000",
"02 c #008000",
"03 c #808000",
"04 c #000080",
"05 c none",
"06 c #008080",
"07 c #C0C0C0",
"08 c #808080",
"09 c red",
"10 c green",
"11 c yellow",
"12 c blue",
"13 c magenta",
"14 c cyan",
"15 c Gray100",
"050500000000000000050505050505050505050505050505",
"050500151515151500040404040404040404040404040405",
"050400151414141500151515151515151515151515150404",
"050400151414141500151515151515151515151515150404",
"050400150808080800151515001515151515151515150404",
"050400000000000000150000081515151515151515150404",
"000000151507070700000007070015151515151515150404",
"001515070707070707080007070700151515151515150404",
"001508080808080808080007080008001515151515150404",
"000000000000000000000000000000080800151515150404",
"050415150000150815070815000008150707001515150404",
"050415150007081507070807070707081507001515150404",
"050415150008070807081507071507070807001515150404",
"050415150808080708150807081507070700001515150404",
"050415150008080800080708150815000000151515150404",
"050415150800000800080707080700080815151515150404",
"050415150807080000000707070008001515151515150404",
"050415150808070708000800000815151515151515150404",
"050415150808080808080008001515151515151515150404",
"050415151515151515000800151515151515151515150404",
"050415151515151515151515151515151515151515150404",
"050415151515151515151515151515151515151515150404",
"050404040404040404040404040404040404040404040404",
"050504040404040404040404040404040404040404040405"
};
