/* XPM */
static char *Pixmap[] = {
"24 24 16 2",
"00 c black",
"01 c #800000",
"02 c #008000",
"03 c #808000",
"04 c #000080",
"05 c none",
"06 c #008080",
"07 c #808080",
"08 c #C0C0C0",
"09 c red",
"10 c green",
"11 c yellow",
"12 c blue",
"13 c magenta",
"14 c cyan",
"15 c Gray100",
"050505050505050505050505050505050505050505050505",
"050504040404040404040404040404040404040404040405",
"050415151515151515151515151515151515151515150404",
"050415151515151515151515151515151515151515150404",
"050415151507000000040404040404040708151515150404",
"050415150700000000001212121212121204151515150404",
"050415150000000000000400070707070404071515150404",
"050415150000000000000404070707070012071515150404",
"050415150000000000000412121212121212091515150404",
"050415150000000000000412121212121212070915150404",
"050415150000000000000412121212121212071509150404",
"050409090909090909090909090909090909090909090404",
"050415150000000000000412121212121212071509150404",
"050415150000000000000412121212121212070915150404",
"050415150000000000000412121212121212091515150404",
"050415150000000000000412121212121212071515150404",
"050415150000000000000412121212121212071515150404",
"050415150000000000000004040404040404071515150404",
"050415150007151515000715151515151504071515150404",
"050415150007151515000715151515151500071515150404",
"050415151515151515151515151515151515151515150404",
"050415151515151515151515151515151515151515150404",
"050404040404040404040404040404040404040404040404",
"050504040404040404040404040404040404040404040405"
};
