/* XPM */
static char *Pixmap[] = {
"24 24 16 2",
"00 c black",
"01 c #800000",
"02 c #008000",
"03 c #808000",
"04 c #000080",
"05 c #800080",
"06 c #008080",
"07 c #C0C0C0",
"08 c #808080",
"09 c red",
"10 c green",
"11 c yellow",
"12 c blue",
"13 c none",
"14 c cyan",
"15 c Gray100",
"131313131313131313131313131313131313131313131313",
"131304040404040404040404040404000404040404040413",
"130015151515151515151515150004040415151515150404",
"130404000015000003030000000708040415151515150404",
"130404070003031103031111111115040415151515150404",
"130408151103110300000303030307070415151515150404",
"130415071103030311030303090909090909090915150404",
"130815030303031111111109090909090909090909090404",
"130807030303030311110909090909090909090909090404",
"130808030303030303090909090909090909090909090904",
"130803030303030303090909090909091509090909090904",
"130000030303000300090909090909151509090909090904",
"130400000303030303030002030015150909090909090404",
"130415000000030003030303000015090909090909150404",
"130415151500000000000000151509090909090915150404",
"130415151515151515151515150909090909091515150404",
"130415151515151515151515150909090909091515150404",
"130415151515151515151515151515151515151515150404",
"130415151515151515151515150909090909091515150404",
"130415151515151515151515150909090909091515150404",
"130415151515151515151515150909090909091515150404",
"130415151515151515151515150909090909091515150404",
"130404040404040404040404040909090909090404040404",
"131304040404040404040404040404040404040404040413"
};
