/* XPM */
static char *Pixmap[] = {
"24 24 16 2",
"00 c black",
"01 c #800000",
"02 c #008000",
"03 c #808000",
"04 c #000080",
"05 c none",
"06 c #008080",
"07 c #808080",
"08 c #C0C0C0",
"09 c red",
"10 c green",
"11 c yellow",
"12 c blue",
"13 c magenta",
"14 c cyan",
"15 c Gray100",
"050500000000000000050505050505050505050505050505",
"050500151515151500040404040404040404040404040405",
"050400151414141500151515151515151515151515150404",
"050400151414141500151515151515151515151515150404",
"050400150707070700151515151515151515151515150404",
"050400000000000000151500000000151515151515150404",
"000000151508080800000008080808001515151515150404",
"001515080808080808070000000008070715151515150404",
"001507070707070707070015151500080015151515150404",
"000000000000000000000015151500080015151515150404",
"050415151515151500080015151500080015151515150404",
"050415151515150000000000000000000000151515150404",
"050415151515000808080808080808080808001515150404",
"050415151515000707070700000007070707001515150404",
"050415151515000808080800000008080808001515150404",
"050415151515000707070808000808070707001515150404",
"050415151515000808080807000708080808001515150404",
"050415151515150007070807000708070700151515150404",
"050415151515151500000808080808000015151515150404",
"050415151515151515150000000000151515151515150404",
"050415151515151515151515151515151515151515150404",
"050415151515151515151515151515151515151515150404",
"050404040404040404040404040404040404040404040404",
"050504040404040404040404040404040404040404040405"
};
