/* XPM */
static char *Pixmap[] = {
"24 24 16 2",
"00 c black",
"01 c #800000",
"02 c #008000",
"03 c #808000",
"04 c #000080",
"05 c #800080",
"06 c #008080",
"07 c #C0C0C0",
"08 c #808080",
"09 c red",
"10 c green",
"11 c yellow",
"12 c blue",
"13 c none",
"14 c cyan",
"15 c Gray100",
"131313131313131313131313131313131313131313131313",
"130508050404080504040008000800080808080807080813",
"130707071515080708150208080808080707070715150704",
"130500060508060105150508080808080707070707150704",
"130808050508050808050608080808080807070707150704",
"130415151515151515150008080808080807070707070704",
"130808081515080815150008080808080808070707070704",
"130508081515060808150000080808080808070707070704",
"130808080502080805050000080808080808080707070804",
"130505051515050515150505010805080508050808050804",
"130415151515151515151515151515151505151515150404",
"130415151515151515151515151515151505151515150404",
"130415151515151515151515151515151505151515150404",
"130415151508151508151508151515151508151515150404",
"130405030601060305020705151515151505151515150404",
"130405060707070715150705151515151505151515150404",
"130405001407070715150805151515151505151515150404",
"130405081407070715150705151515151508151515150404",
"130405080608080808080705151515151505151515150404",
"130405050508000008080815151515151505151515150404",
"130408080508050805080508151515151508151515150404",
"130408080808070707071507050808050805151515150404",
"130402050808030808080808050404040404040404040404",
"131304040404040404040404040404040404040404040413"
};
