/* XPM */
static char *Pixmap[] = {
"24 24 16 2",
"00 c black",
"01 c #800000",
"02 c #008000",
"03 c #808000",
"04 c #000080",
"05 c none",
"06 c #008080",
"07 c #C0C0C0",
"08 c #808080",
"09 c red",
"10 c green",
"11 c yellow",
"12 c blue",
"13 c magenta",
"14 c cyan",
"15 c Gray100",
"050505050505050505050505050505050505050505050505",
"050504040404040404040404040404040404040404040405",
"050415151515151515151515151515151515151515150404",
"050415151515151515151515151515151515151515150404",
"050415151515151515151515151515151515151515150404",
"050415151515151515150000000000151515151515150404",
"050415151515151515000707070707001515151515150404",
"050415151515151508080700000007080815151515150404",
"050415151515151500070015151500070015151515150404",
"050415151515151500070015151500070015151515150404",
"050415151515151500070015151500070015151515150404",
"050415151515150000000000000000000000151515150404",
"050415151515000707070707070707070707001515150404",
"050415151515000808080800000008080808001515150404",
"050415151515000707070700000007070707001515150404",
"050415151515000808080707000707080808001515150404",
"050415151515000707070708000807070707001515150404",
"050415151515150008080708000807080800151515150404",
"050415151515151500000707070707000015151515150404",
"050415151515151515150000000000151515151515150404",
"050415151515151515151515151515151515151515150404",
"050415151515151515151515151515151515151515150404",
"050404040404040404040404040404040404040404040404",
"050504040404040404040404040404040404040404040405"
};
