/* XPM */
static char *Pixmap[] = {
"24 24 16 2",
"00 c black",
"01 c #800000",
"02 c #008000",
"03 c #808000",
"04 c #000080",
"05 c none",
"06 c #008080",
"07 c #808080",
"08 c #C0C0C0",
"09 c red",
"10 c green",
"11 c yellow",
"12 c blue",
"13 c magenta",
"14 c cyan",
"15 c Gray100",
"050505050505050505050505050505050505050505050505",
"050504040404000707040404040404040404040404040405",
"050415150007070707081515151515151515151515150404",
"050707070700080707081515151515151515151515150404",
"050007000008080807071515151515151515151515150404",
"050807000008080808070015151515151515151515150404",
"050007070810080808000715151515151515151515150404",
"050407070808080808080700151515151515151515150404",
"050400070708140808080707151515151515151515150404",
"050415000808080808080807001515151515151515150404",
"050415000707080908080807081515151515151515150404",
"050415150007070808070707071515151515151515150404",
"050415150007070707070707071515151515151515150404",
"050415151500070707070800150007080007151515150404",
"050415151507070700071515150800080000080700150404",
"050415151500001515151515151500080000080800150404",
"050415151515151515151515151515000707080807000804",
"050415151515151515151515151508080708080700000000",
"050415151515151515151515151515000015001500070000",
"050415151515151515151515151500081515151515150000",
"050415151515151515151515151500001515151515150404",
"050415151515151515151515151508001515151515150404",
"050404040404040404040404040408040404040404040404",
"050504040404040404040404040404040404040404040405"
};
