/* XPM */
static char *Pixmap[] = {
"24 24 16 2",
"00 c black",
"01 c #800000",
"02 c #008000",
"03 c #808000",
"04 c #000080",
"05 c #800080",
"06 c #008080",
"07 c #C0C0C0",
"08 c #808080",
"09 c red",
"10 c green",
"11 c yellow",
"12 c none",
"13 c magenta",
"14 c cyan",
"15 c Gray100",
"121212121212121212121212121107121212120712121212",
"121204040404040411070704040707070404070704040412",
"120415151515151507070715150708071515090715150411",
"120415150707151515111115151515151515071515070811",
"120415150711071515150715151507080701071515110907",
"120415151507110715151515070807151515080815150404",
"070708071515151515150808151515150000151515000804",
"070711091515151515080015151515080807150715070407",
"120411091515150700151515001515151515001515150803",
"120415151507080715150800071515150000151507000009",
"120415150201151508151507081515150715150700000308",
"120408001515150000071515001515151515070001090907",
"120408000715000000000007001515151515000109091304",
"120407030008151515080000000715150800010913070704",
"120415070100081515151507000715000001091307150404",
"120415130901000815151515151500000808070715150404",
"120415071309010007151515070001090913071515150404",
"120415070808090100081507000109090715151515150404",
"120415151508090901000600050907070715151515150404",
"120415151515070909010005090813151515151515150404",
"120415151515070709090913070715151515151515150404",
"120415151515150713090909071515151515151515150404",
"120404040404040407130907040404040404040404040404",
"121204040404040404070707040404040404040404040412"
};
