/* XPM */
static char *Pixmap[] = {
"16 16 16 2",
"00 c black",
"01 c #800000",
"02 c #008000",
"03 c none",
"04 c #000080",
"05 c #800080",
"06 c #008080",
"07 c #808080",
"08 c #C0C0C0",
"09 c red",
"10 c green",
"11 c yellow",
"12 c blue",
"13 c magenta",
"14 c cyan",
"15 c Gray100",
"03030303030303030303030303030303",
"03030303030303030303030303030303",
"03030303030303030303030303030303",
"03030303030303030303030303030303",
"03030303030303030707030303030303",
"03030303030307070307150303030303",
"03030303070703151507150303030303",
"03030707031515030307070707070707",
"07070315150303030303151515151507",
"03150707030303030307070707070707",
"03030315070703030307151515151515",
"03030303031507070307150303030303",
"03030303030303150707150303030303",
"03030303030303030315150303030303",
"03030303030303030303030303030303",
"03030303030303030303030303030303"
};
