/* XPM */
static char *Pixmap[] = {
"24 24 16 2",
"00 c black",
"01 c #800000",
"02 c #008000",
"03 c #808000",
"04 c #000080",
"05 c #800080",
"06 c #008080",
"07 c #C0C0C0",
"08 c #808080",
"09 c red",
"10 c green",
"11 c yellow",
"12 c blue",
"13 c magenta",
"14 c cyan",
"15 c Gray100",
"050505050505050808000800000800070805050505050505",
"050504040404080303070715080715080808040404040405",
"050415070800030307030808080303071507000815150404",
"050415080307150803071108030707030307150708150404",
"050408000807081103070307030303071507070708080404",
"050400031108080708080707030715030803071115000404",
"050803070308080307030808030303070308080315030804",
"080007030703070303030808080703031107070307030808",
"080803030303070715070303071103030703030303150808",
"030803070303030303070303070307150707030703150703",
"000307110703070307110303030303030307030703070700",
"000308080303110303080308080707071108080803151104",
"000303070803030811070803080303150803070703030703",
"000307071108031507070707030315030807110707070800",
"000307030703030703030311030307030807030811030703",
"070303031511081507071507030315070707080715070808",
"080003030807110308080803031507071108030703070308",
"050803030315030307080303150703030303081103070804",
"050400030303030707030308070303030707070707030404",
"050408030307030307030715110703030311030303080404",
"050407080303030703030303080808150703030308070404",
"050415070800030303030307030807030303040807150404",
"050404040404080003030303030303030003040404040404",
"050504040404040808000308000300080404040404040405"
};
