/* XPM */
static char *Pixmap[] = {
"24 24 16 2",
"00 c black",
"01 c #800000",
"02 c #008000",
"03 c #808000",
"04 c #000080",
"05 c none",
"06 c #008080",
"07 c #C0C0C0",
"08 c #808080",
"09 c red",
"10 c green",
"11 c yellow",
"12 c blue",
"13 c magenta",
"14 c cyan",
"15 c Gray100",
"050505050505050505050505050505050505050505050505",
"050504040404040404040404040404040404040404040405",
"050415151515151515151515151515151515151515150404",
"050415151515151515151515151515151515151515150404",
"050403030303030303030300000300080800000003030404",
"050415151515151515151500000008070800000015150404",
"050415151500000000000000000000080015151515150404",
"050415151500080808080808080800000000151515150404",
"050415151500000000000000150007070708151515150404",
"050415151508060814081406000000080000151515150404",
"050415151515001414141414061500080015151515150404",
"050415151500061408140806001500000015151515150404",
"050415151515060614061406001500080015151515150404",
"050415151501140814081400151500080015151515150404",
"050415151500060606060606001500000015151515150404",
"050415151515001406140614060000080015151515150404",
"050415151500080608060806010008080800151515150404",
"050415151500000000000000000601060106151515150404",
"050415151500080808080808080000080000151515150404",
"050415151515151507150715151500000015151515150404",
"050415151515151515151515151515151515151515150404",
"050415151515151515151515151515151515151515150404",
"050404040404040404040404040404040404040404040404",
"050504040404040404040404040404040404040404040405"
};
