/* XPM */
static char *Pixmap[] = {
"24 24 16 2",
"00 c black",
"01 c #800000",
"02 c #008000",
"03 c #808000",
"04 c #000080",
"05 c none",
"06 c #008080",
"07 c #C0C0C0",
"08 c #808080",
"09 c red",
"10 c green",
"11 c yellow",
"12 c blue",
"13 c magenta",
"14 c cyan",
"15 c Gray100",
"050505050505050505050505050505050505050505050505",
"050504040404040404040404040404040404040404040405",
"050415151515151515151515151515151515151515150404",
"050415151515151515151515151515151515151515150404",
"010101010101011515120412121215151515151515150404",
"050415151515150303121204120412121515151515150404",
"050415151515030303031212031203031215151515150404",
"050415151504120303030303030303031212151515150404",
"050415151512121212120303030303030412151515150404",
"050415151212120303121204030303121204121515150404",
"050415150412120303030303030303120412041515150404",
"010101011204030303030303120312041212120101010101",
"050415150412120303030303121212040404121515150404",
"050415151212121212030303121212041204041515150404",
"050415151504121212030303040404040303151515150404",
"050415151504120412030304120412040303151515150404",
"050415151515041204030304040404040415151515150404",
"050415151515150412040404120404041515151515150404",
"010101010101011515040412041215151515151515150404",
"050415151515151515151515151515151515151515150404",
"050415151515151515151515151515151515151515150404",
"050415151515151515151515151515151515151515150404",
"050404040404040404040404040404040404040404040404",
"050504040404040404040404040404040404040404040405"
};
