/* XPM */
static char *Pixmap[] = {
"24 24 16 2",
"00 c black",
"01 c #800000",
"02 c #008000",
"03 c #808000",
"04 c #000080",
"05 c None",
"06 c #008080",
"07 c #C0C0C0",
"08 c #808080",
"09 c red",
"10 c green",
"11 c yellow",
"12 c blue",
"13 c magenta",
"14 c cyan",
"15 c Gray100",
"050505050505050505050505050505050505050505050505",
"050504040404040404040404040404040404040404040405",
"050415151515151515151515151515151515151515150404",
"050415151515151515151515151515151515151515150404",
"050415151503150315031503150315031503150315150404",
"050415150303030303030303030303030303031515150404",
"050415151503151515151515151515151515030315150404",
"050415150303151500151500151500150015031515150404",
"050415151503151500150015001500080015030315150404",
"050415150303151500150000001500080015031515150404",
"050415151503150000150015001500150015030315150404",
"050415150303151515151515151515151515031515150404",
"050415151503151515151515001515151515030315150404",
"050415150303151515151500001515151515031515150404",
"050415151503151515151515001515151515030315150404",
"050415150303151515151500000015151515031515150404",
"050415151503151515151515151515151515030315150404",
"050415150303151515151515151515151515031515150404",
"050415151503030303030303030303030303030315150404",
"050415150315031503150315031503150315031515150404",
"050415151515151515151515151515151515151515150404",
"050415151515151515151515151515151515151515150404",
"050404040404040404040404040404040404040404040404",
"050504040404040404040404040404040404040404040405"
};
