/* XPM */
static char *Pixmap[] = {
"24 24 16 2",
"00 c black",
"01 c #800000",
"02 c #008000",
"03 c #808000",
"04 c #000080",
"05 c none",
"06 c #008080",
"07 c #C0C0C0",
"08 c #808080",
"09 c red",
"10 c green",
"11 c yellow",
"12 c blue",
"13 c magenta",
"14 c cyan",
"15 c Gray100",
"050500000000000000050505050505050505050505050505",
"050500151515151500040404040404040404040404040405",
"050400151414141500151515151515151515151515150404",
"050400151414141500151515151515151515151515150404",
"050400150808080800150000000000151515151515150404",
"050400000000000000150008080800151515151515150404",
"000000151507070700000000000000000000151515150404",
"001515070707070707080007080808080800151515150404",
"001508080808080808080000000000000000151515150404",
"000000000000000000000008000800080015151515150404",
"050415151515151500150007000800080015151515150404",
"050415151515150000150007000700080000151515150404",
"050415151515001500150007000800080015001515150404",
"050415151515151500150007000700080015151515150404",
"051215151515121500121212120800080012121212120404",
"051215151515121500120007001200080012151515151204",
"051215151515121500120007000812080012151515151204",
"051215151515121500120007000712080012151515151204",
"051215151515121500120808080812080012121212120404",
"051215151515121500120000000012000012151515150404",
"051215151515121515121515151512151512151515150404",
"051215151515121515121515151215151512151515150404",
"050412121212040404121212120404040412040404040404",
"050504040404040404040404040404040404040404040405"
};
