/* XPM */
static char *Pixmap[] = {
"24 24 16 2",
"00 c black",
"01 c #800000",
"02 c #008000",
"03 c #808000",
"04 c #000080",
"05 c #800080",
"06 c #008080",
"07 c #C0C0C0",
"08 c #808080",
"09 c red",
"10 c green",
"11 c yellow",
"12 c blue",
"13 c magenta",
"14 c cyan",
"15 c Gray100",
"050500000000000000050505050505050505050505050505",
"050500151515151500040404040404040404040404040405",
"050400151414141500151515151515151515151515150404",
"050400151414141500151515151515151515151515150404",
"050400150808080800151515151515151515151515150404",
"050400000000000000151515151515151515151515150404",
"000000151507070700000015151515151515151515150404",
"001515070707070707080015151515151515151515150404",
"001508080808080808080015151515151515151515150404",
"000000000000000000000015151515151515151515150404",
"050401010101151515011515151501151501010101150404",
"050401151515011515010115151501150115151515010404",
"050401151515150115011501151501150115151515150404",
"050401151515150115011501151501151501011515150404",
"050401151515150115011515011501151515150101150404",
"050401151515150115011515011501151515151515010404",
"050401151515011515011515150101150115151515010404",
"050401010101151515011515151501151501010101150404",
"050415151515151515151515151515151515151515150404",
"050415151515151515151515151515151515151515150404",
"050415151515151515151515151515151515151515150404",
"050415151515151515151515151515151515151515150404",
"050404040404040404040404040404040404040404040404",
"050504040404040404040404040404040404040404040405"
};
