/* XPM */
static char *Pixmap[] = {
"24 24 16 2",
"00 c black",
"01 c #800000",
"02 c #008000",
"03 c #808000",
"04 c #000080",
"05 c none",
"06 c #008080",
"07 c #C0C0C0",
"08 c #808080",
"09 c red",
"10 c green",
"11 c yellow",
"12 c blue",
"13 c magenta",
"14 c cyan",
"15 c Gray100",
"050505050505050505050505050505050505050505050505",
"050504040404040404040404040404040404040404040405",
"050415151515151515151515151515151515151515150404",
"050415150909090909090909090909090909090915150404",
"050415150101010101010101010101010101010115150404",
"050415150909090909090909090909090909090915150404",
"050415151515151515151515151515151515151515150404",
"050415010101151515010101150101011515150101010404",
"050415150101011501010115151501010115010101150404",
"050415150101011501010115151501010115010101150404",
"050415151501010101011515151515010101010115150404",
"050415151515010101151515151515150101011515150404",
"050415151501010101011515151515010101010115150404",
"050415151501010101011515151515010101010115150404",
"050415150101011501010115151501010115010101150404",
"050415150101011501010115151501010115010101150404",
"050415010101151515010101150101011515150101010404",
"050415151515151515151515151515151515151515150404",
"050415151515151515151515151515151515151515150404",
"050415151515151515151515151515151515151515150404",
"050415151515151515151515151515151515151515150404",
"050415151515151515151515151515151515151515150404",
"050404040404040404040404040404040404040404040404",
"050504040404040404040404040404040404040404040405"
};
