/* XPM */
static char *Pixmap[] = {
"24 24 16 2",
"00 c black",
"01 c #800000",
"02 c #008000",
"03 c #808000",
"04 c #000080",
"05 c none",
"06 c #008080",
"07 c #C0C0C0",
"08 c #808080",
"09 c red",
"10 c green",
"11 c yellow",
"12 c blue",
"13 c magenta",
"14 c cyan",
"15 c Gray100",
"050505050505050505050505050505050505050505050505",
"050504040404040404040404040404040404040404040405",
"050415151515151515151515151515151515151515150404",
"050415151515151515151515151515151515151515150404",
"050415151115151515151511151515151515151115150404",
"050415151511111515151511111515151511111515150404",
"050415151515110000000000001515151111151515150404",
"050415151515150015151515000015111115151515150404",
"050415151515150015000715001500111515151515150404",
"050415151515150015151515001515001515151515150404",
"050415151515150015000015000000000015151515150404",
"050415151511110015151515151515150011111115150404",
"050415151111110015000000001500150011111515150404",
"050415151515150015151515151515150008151515150404",
"050415151515150015000015000000150008151515150404",
"050415151515150015151515151515150008151515150404",
"050415151515150015151515151515150008151515150404",
"050415151515110000000000000000000011151515150404",
"050415151511111508080811110808080811111515150404",
"050415151515151515151515111515151515151115150404",
"050415151515151515151515151515151515151515150404",
"050415151515151515151515151515151515151515150404",
"050404040404040404040404040404040404040404040404",
"050504040404040404040404040404040404040404040405"
};
