/* XPM */
static char *Pixmap[] = {
"24 24 16 2",
"00 c black",
"01 c #800000",
"02 c #008000",
"03 c #808000",
"04 c #000080",
"05 c #800080",
"06 c #008080",
"07 c #C0C0C0",
"08 c #808080",
"09 c red",
"10 c green",
"11 c yellow",
"12 c blue",
"13 c magenta",
"14 c cyan",
"15 c Gray100",
"131313131313131313131313131313131313131313131313",
"131304040404040404040404040404040404040404040413",
"130415000000151515151515151515151515000000001504",
"130415000303001515151515151515151500030303001504",
"130415150003030000000000000000000003030300151504",
"130415150003000003030303030303030300000300151504",
"130415150000030303030303030303030303030000151504",
"130415150003030300000003030300000003030300151504",
"130415150003030015150003030300151500030300151504",
"130415150003001500000003030300000015000300151504",
"130415000303001500000003030300000015000303001504",
"130415000303030000000003030300000000030303001504",
"130415000303030300000303030303000003030303001504",
"130415000303030303030303030303030303030303001504",
"130415000303030303030303030303030303030303001504",
"130415000303030303030303000303030303030303001504",
"130415150003030303030000000000030303030300151504",
"130415150003030303030303000303030303030300151504",
"130415151500030300030303030303030303030015151504",
"130415151515000303000015001500030303001515151504",
"130415151515150000030015001500030000151515151504",
"130415151515151515000015001500001515151515151504",
"130404040404040404040015001500040404040404040404",
"131304040404040404040000000000040404040404040413"
};
