/* XPM */
static char *Pixmap[] = {
"24 24 16 2",
"00 c black",
"01 c #800000",
"02 c #008000",
"03 c #808000",
"04 c #000080",
"05 c #800080",
"06 c #008080",
"07 c #C0C0C0",
"08 c #808080",
"09 c red",
"10 c green",
"11 c yellow",
"12 c blue",
"13 c magenta",
"14 c cyan",
"15 c Gray100",
"050500000000000000050505050505050505050505050505",
"050500151515151500040404040404040404040404040405",
"050400151414141500151515151515151515151515150404",
"050400151414141500151515151515151515151515150404",
"050400150808080800120412121215151515151510100404",
"050400000000000000121204120412121515151010100404",
"000000151507070700000012031203031215101010150404",
"001515070707070707080003030303031212101015150404",
"001508080808080808080003030303030412151515150404",
"000000000000000000000004030303121204121515150404",
"050415150412120303030303030303120412041515150404",
"050410101204030303030303120312041212121515150404",
"050415150412120303030303121212040404121515150404",
"050415151212121212030303121212041204041515150404",
"050415151504121212030303040404040303151515150404",
"050415151504120412030304120412040303101015150404",
"050415151515041204030304040404040415101010150404",
"050415151515150412040404120404041515151010100404",
"050415151515151515040412041215151515151510100404",
"050415151515151515151515151515151515151515150404",
"050415151515151515151515151515151515151515150404",
"050415151515151515151515151515151515151515150404",
"050404040404040404040404040404040404040404040404",
"050504040404040404040404040404040404040404040405"
};
