/* XPM */
static char *Pixmap[] = {
"24 24 16 2",
"00 c black",
"01 c #800000",
"02 c #008000",
"03 c #808000",
"04 c #000080",
"05 c #800080",
"06 c #008080",
"07 c #808080",
"08 c #C0C0C0",
"09 c red",
"10 c green",
"11 c yellow",
"12 c blue",
"13 c magenta",
"14 c cyan",
"15 c Gray100",
"030303030303030303030303030303030303030303030303",
"030304040404040404040404040404040404040404040403",
"030415151515151515151515151515151515151515150404",
"030415151515151515151515151515151515151515150404",
"030415151515151515151515151500000000000015150404",
"030415151515151515151515150015151515151500150404",
"030415151515151515151515001515151515151515000404",
"030415151515151515151515150015151515151500150404",
"030415151515151515151515151500000000000015150404",
"030415151515151515151515151500150015151515150404",
"030415151515151515151515151500001515151515150404",
"030415151515151515151515151515151515151515150404",
"030415151515151515151515151500001515151515150404",
"030415151515151515151515151500150015151515150404",
"030415151515151515151515151500000000000015150404",
"030415151515151515151515150015151515151500150404",
"030415151515151515151515001515151515151515000404",
"030415151515151515151515150015151515151500150404",
"030415151515151515151515151500000000000015150404",
"030415151515151515151515151515151515151515150404",
"030415151515151515151515151515151515151515150404",
"030415151515151515151515151515151515151515150404",
"030404040404040404040404040404040404040404040404",
"030304040404040404040404040404040404040404040403"
};
