/* XPM */
static char *Pixmap[] = {
"24 24 16 2",
"00 c black",
"01 c #800000",
"02 c #008000",
"03 c None",
"04 c #000080",
"05 c #800080",
"06 c #008080",
"07 c #C0C0C0",
"08 c #808080",
"09 c red",
"10 c green",
"11 c yellow",
"12 c blue",
"13 c magenta",
"14 c cyan",
"15 c Gray100",
"030300000000000000030303030303030303030303030303",
"030300151515151500040404040404040404040404040403",
"030400151414141500151515151515151515151515150404",
"030400151414141500151515151515151515151515150404",
"030400150808080800151515151500000000000015150404",
"030400000000000000151515150015151515151500150404",
"000000151507070700000015001515151515151515000404",
"001515070707070707080015150015151515151500150404",
"001508080808080808080015151500000000000015150404",
"000000000000000000000015151500150015151515150404",
"030415151515151515151515151500001515151515150404",
"030415151515151515151515151515151515151515150404",
"030415151515151515151515151500001515151515150404",
"030415151515151515151515151500150015151515150404",
"030415151515151515151515151500000000000015150404",
"030415151515151515151515150015151515151500150404",
"030415151515151515151515001515151515151515000404",
"030415151515151515151515150015151515151500150404",
"030415151515151515151515151500000000000015150404",
"030415151515151515151515151515151515151515150404",
"030415151515151515151515151515151515151515150404",
"030415151515151515151515151515151515151515150404",
"030404040404040404040404040404040404040404040404",
"030304040404040404040404040404040404040404040403"
};
