/* XPM */
static char *Pixmap[] = {
"24 24 16 2",
"00 c black",
"01 c #800000",
"02 c #008000",
"03 c #808000",
"04 c #000080",
"05 c #800080",
"06 c #008080",
"07 c #C0C0C0",
"08 c #808080",
"09 c red",
"10 c green",
"11 c yellow",
"12 c blue",
"13 c magenta",
"14 c cyan",
"15 c Gray100",
"050505031111111111030305050505050505050505050505",
"050504031111111111030804040404030308040404040405",
"050415031111111111031515151508080800031515150404",
"050415031111111103081515150808070708000815150404",
"050415031111111103151515150808070708000815150404",
"050408031111110303151515150800080808000815150404",
"050408031111110308151515080301000000010815150404",
"050408031111110315151515000707010101030303150404",
"050403031111030308080808001111070803030300150404",
"050403031111110303030303001103031107030300150404",
"050403030311111111110315001103030303090300150404",
"050408080303031111030315001103030303030300150404",
"050415151503111111031515001103030303030300150404",
"050415151503111111031515080311030303030300150404",
"050415151503111103151515080311030303090108150404",
"050415151503111103151515080303031103010108150404",
"050415151503110308151515080303031103030108150404",
"050415150803110315151515080303031103030108150404",
"050415150803030815151515080303031103030108150404",
"050415150803031515151515080303031103030108150404",
"050415150303031515151515080103031103030108150404",
"050415150303151515151515150303011103030107150404",
"050404040303040404040404040408080303030404040404",
"050504040308040404040404040404040404040404040405"
};
