/* XPM */
static char *Pixmap[] = {
"24 24 16 2",
"00 c black",
"01 c #800000",
"02 c #008000",
"03 c #808000",
"04 c #000080",
"05 c #800080",
"06 c #008080",
"07 c #808080",
"08 c #C0C0C0",
"09 c red",
"10 c green",
"11 c yellow",
"12 c blue",
"13 c magenta",
"14 c cyan",
"15 c none",
"151515151515151515151515151515151515151515151515",
"151515151515151515151515151515151515151515151515",
"150909090915150909090909090909090909090909151515",
"150909090907150909090909090909090909090909091515",
"150909090900150909090909090909090909090909090015",
"150909090900150909090900000000000000090909090000",
"150909090900150909090900000707070706090909090000",
"150909090900150909090900071515151515090909090000",
"150909090900150909090909090909090909090909090000",
"150909090900150909090909090909090909090909090000",
"150909090900150909090909090909090909090909000000",
"150909090900150909090900000000000000000000000007",
"150909090900150909090900000000000000000000000715",
"150909090900150909090900071515151515151515151515",
"150809010100150807000100071508060815080608151515",
"151506000000151508000000071508001515150008151515",
"151515151515151515151515151507000015000007151515",
"151515151515151515151515150706010200020106071515",
"151515151515151515151515150001060107010601001515",
"151515151515151515151515150007000007000007001515",
"151515151515151515151515150001060700070601001515",
"151515151515151515151515150006081500150806001515",
"151515151515151515151515080001081515150801000815",
"151515151515151515151515151515151515151515151515"
};
