/* XPM */
static char *Pixmap[] = {
"24 24 16 2",
"00 c black",
"01 c #800000",
"02 c #008000",
"03 c #808000",
"04 c #000080",
"05 c none",
"06 c #008080",
"07 c #C0C0C0",
"08 c #808080",
"09 c red",
"10 c green",
"11 c yellow",
"12 c blue",
"13 c magenta",
"14 c cyan",
"15 c Gray100",
"050505050505050505050505050505050505050505050505",
"050504040404040404040404040404040404040404040405",
"050415151515151515151515151515151515151515150404",
"050415150909090000000000000000000000000915150404",
"050415150101000707070707070707070700010015150404",
"050415150900070001000000000007070009090915150404",
"050401071500070101010101010707070015151515150404",
"050408071500070100010000000007070015151515150404",
"050407011500080107010707070707070015151515150404",
"050415010115000100010000000100010100080101070404",
"050415080108000807010101070108070801081507010404",
"050415150115010700000000000100070701151515070404",
"050415150107010707080707070107070701151515150404",
"050415150108010700000000000100070701151515010404",
"050415150101080707070707080107070001081507080404",
"050415070101080000010101010108070107080101150404",
"050415151501070707070707070707070015151515150404",
"050415150701070000000000000007070015150015150404",
"050415151515000707070707070707070700150015150404",
"050415151515150000000000000000000000001515150404",
"050415151515151515151515151515151515151515150404",
"050415151515151515151515151515151515151515150404",
"050404040404040404040404040404040404040404040404",
"050504040404040404040404040404040404040404040405"
};
