/* XPM */
static char *Pixmap[] = {
"24 24 16 2",
"00 c black",
"01 c #800000",
"02 c #008000",
"03 c #808000",
"04 c #000080",
"05 c none",
"06 c #008080",
"07 c #C0C0C0",
"08 c #808080",
"09 c red",
"10 c green",
"11 c yellow",
"12 c blue",
"13 c magenta",
"14 c cyan",
"15 c Gray100",
"050500000000000000050505050505050505050505050505",
"050500151515151500040404040404040404040404040405",
"050400151414141500151515151515151515151515150404",
"050400151414141500151515151515151515151515150404",
"050400150808080800081515151515151515151515150404",
"050400000000000000000000000000000000000000000404",
"000000151507070700000009090909090909090909090404",
"001515070707070707080009090909090909090909090404",
"001508080808080808080000000000000000000000000404",
"000000000000000000000008080808080800151515150404",
"050415150009070907070008080808080800151515150404",
"050415150007070700070008080808080800151515150404",
"050415150007070707070000080808080800151515150404",
"050415150000080707070000000008080800151515150404",
"050415151515000008070000000000000800151515150404",
"050415151515000300000000000000000000151515150404",
"050415151515001103000000000000000000151515150404",
"050415151515001103001500070707070707001515150404",
"050415151515001103001515000707070707070015150404",
"050415151515001103001515150000000000000015150404",
"050415151515151515151515151515151515151515150404",
"050415151515151515151515151515151515151515150404",
"050404040404040404040404040404040404040404040404",
"050504040404040404040404040404040404040404040405"
};
