/* XPM */
static char *Pixmap[] = {
"24 24 16 2",
"00 c black",
"01 c #800000",
"02 c #008000",
"03 c #808000",
"04 c #000080",
"05 c none",
"06 c #008080",
"07 c #C0C0C0",
"08 c #808080",
"09 c red",
"10 c green",
"11 c yellow",
"12 c blue",
"13 c magenta",
"14 c cyan",
"15 c Gray100",
"050505050505050505050505050505050505050505050505",
"050504040404040404040404040404040404040404040405",
"050415151515151515151515151515151515151515150404",
"050415151515150000000000000000000000001515150404",
"050415151515000707070707070707070700150015150404",
"050415151500070000000000000007070015151515150404",
"050415151500070707070707070707070015151515150404",
"050415151504121212120000001212080015151515150404",
"050415151512121212120707081212080015151515150404",
"050415150712120804040400121212080700151515150404",
"050415150712121212120712121212080700151515150404",
"050415150712121212120412121212120700151515150404",
"050415150712040712121212121212120800151515150404",
"050415151512120812120404040412120700151515150404",
"050415151504121212120707070812080015151515150404",
"050415151500080404000000000008070015151515150404",
"050415151500070707070707070707070015151515150404",
"050415151500070000000000000007070015150015150404",
"050415151212000707070707070707070700120015150404",
"050415150404040000000000000000000000000415150404",
"050415151212121212121212121212121212121215150404",
"050415151515151515151515151515151515151515150404",
"050404040404040404040404040404040404040404040404",
"050504040404040404040404040404040404040404040405"
};
