/* XPM */
static char *Pixmap[] = {
"24 24 16 2",
"00 c black",
"01 c #800000",
"02 c #008000",
"03 c #808000",
"04 c #000080",
"05 c #800080",
"06 c #008080",
"07 c #C0C0C0",
"08 c #808080",
"09 c red",
"10 c green",
"11 c yellow",
"12 c blue",
"13 c magenta",
"14 c cyan",
"15 c Gray100",
"050505050505050505050505050505050505050505050505",
"050504040404040404040404040404040404040404040405",
"050415151515151515151515151515151515080715150404",
"050415151515151515151515151515150700080807150404",
"050415150800080008000800080000000808080607150404",
"050415070807070707070707080808070706080804150404",
"050415080608070707070800080715150808121501070404",
"050407080805080608000815151515150707151507060404",
"050400150800000108071515151515060715151515010704",
"050707070800080706081515150700150715151515070604",
"050808000807070607150707000707070715151515070107",
"070807080708071515080808150808080708071507060007",
"080707070815151515070708000715050808151507000404",
"000008000715071507070007150700150707000008000404",
"000707080807150715151515071507150708070707030404",
"080807070605020502050008000800080207070708040404",
"000707070708070808080802080807080707080707030404",
"000707080707080000000800050007070707070708040404",
"060707070708080407070707070707070807080707030404",
"010708070707080307070707070707070707070707040404",
"000601060100060106010601060304030403040106010404",
"070408050608080808080808050808060805030608020404",
"050404040404040404040404040404040404040404040404",
"050504040404040404040404040404040404040404040405"
};
