/* XPM */
static char *Pixmap[] = {
"24 24 16 2",
"00 c black",
"01 c #800000",
"02 c #008000",
"03 c #808000",
"04 c #000080",
"05 c #800080",
"06 c #008080",
"07 c #C0C0C0",
"08 c #808080",
"09 c red",
"10 c green",
"11 c yellow",
"12 c blue",
"13 c magenta",
"14 c cyan",
"15 c Gray100",
"050505050505050505050505050505050505050505050505",
"050504040404040404040404040404040404040404040405",
"050415151515151515151515151515151515151515150404",
"050415151515151515151515151515151515151515150404",
"050415151515151515151515151515151515151515150404",
"050415151515151515151515151515151515151515150404",
"050415151503030303030303030303030303031515150404",
"050415150315111511151115111511151115030015150404",
"050415150311000000000000000003030303080015150404",
"050415150315001515151515150703030303080015150404",
"050415150311000707070707070703030303080015150404",
"050415150315030303030303030303030303080015150404",
"050415150311030015001500150015001500080015150404",
"050415150315030303030303030303030303080015150404",
"050415150311030015001500150015150700080015150404",
"050415150315030303030303030303030303080015150404",
"050415150303080808080808080808080808080015150404",
"050415151500000000000000000000000000001515150404",
"050415151515151515151515151515151515151515150404",
"050415151515151515151515151515151515151515150404",
"050415151515151515151515151515151515151515150404",
"050415151515151515151515151515151515151515150404",
"050404040404040404040404040404040404040404040404",
"050504040404040404040404040404040404040404040403"
};
