/* XPM */
static char *Pixmap[] = {
"24 24 16 2",
"00 c black",
"01 c #800000",
"02 c #008000",
"03 c #808000",
"04 c #000080",
"05 c #800080",
"06 c #008080",
"07 c #C0C0C0",
"08 c #808080",
"09 c red",
"10 c green",
"11 c yellow",
"12 c blue",
"13 c magenta",
"14 c cyan",
"15 c Gray100",
"050505050505050505050505050505050505050505050505",
"050504040404040404040404040404040404040404040405",
"050415151515151515151515151515151515151515150404",
"050415151515151515151515151515151515151515150404",
"050415151515151515151515151515151515151515150404",
"050415151515151515151515151500000000151515150404",
"050415151515151515151515150015151515001515150404",
"050415151515151515151515001515151515150015150404",
"050415151515151515151500151515151515151500150404",
"050415151515151515151500151515151515151500150404",
"050415151515151515151500151515151515151500150404",
"050415151515151515151500151515151515151500150404",
"050415151515151515151500151515151515151500150404",
"050415151515151515151500151515151515151500150404",
"051215151515121515121212121515151512121212120404",
"051215151515121515121515151215151512001515151204",
"051215151515121515121515151512000012151515151204",
"051215151515121515121515151512150012151515151204",
"051215151515121515121515150012001512121212120404",
"051215151515121515121515000012151512151515150404",
"051215151515121515121515151512151512151515150404",
"051215151515121515121515151215151512151515150404",
"050412121212040404121212120404040412040404040404",
"050504040404040404040404040404040404040404040405"
};
