/* XPM */
static char *Pixmap[] = {
"24 24 16 2",
"00 c black",
"01 c #800000",
"02 c #008000",
"03 c #808000",
"04 c #000080",
"05 c #800080",
"06 c #008080",
"07 c #C0C0C0",
"08 c #808080",
"09 c red",
"10 c green",
"11 c yellow",
"12 c blue",
"13 c magenta",
"14 c cyan",
"15 c Gray100",
"050500000000000000080808050808080808080808080505",
"050500151515151500110308040111111111110108150405",
"050400151414141500110808150111111111110115150404",
"050400151414141500110808150111111111030815150404",
"050400150808080800110803150111111111011515150404",
"050400000000000000111101150111111108031515150404",
"000000151507070700000001080111111101081515150404",
"001515070707070707080001080311111101151515150404",
"001508080808080808080001080311110301080808150404",
"000000000000000000000001080311110803030301150404",
"050415150111111111110801010308111111110808150404",
"050415150808111103010808080803011111110115150404",
"050415151501111103081515151515011111110115150404",
"050415151503081108081515151515011111030815150404",
"050415151515011108011515151515011111011515150404",
"050415151515011111011515151515011103081515150404",
"050415151515080311011515151508031101151515150404",
"050415151515150111011515151508030808151515150404",
"050415151515150803011515151508030115151515150404",
"050415151515151501011515151508010815151515150404",
"050415151515151508010815151503011515151515150404",
"050415151515151515010815151501011515151515150404",
"050404040404040404030804040401080404040404040404",
"050504040404040404040404040404040404040404040405"
};
