/* XPM */
static char *Pixmap[] = {
"24 24 16 2",
"00 c black",
"01 c #800000",
"02 c #008000",
"03 c #808000",
"04 c #000080",
"05 c #800080",
"06 c #008080",
"07 c #808080",
"08 c #C0C0C0",
"09 c red",
"10 c green",
"11 c yellow",
"12 c blue",
"13 c magenta",
"14 c cyan",
"15 c Gray100",
"141414141414141414141414141414141414141414141414",
"141404040404040404040404040404000404040404040414",
"140015151515151515151515150004040415151515150404",
"140404000015000003030000000807040415151515150404",
"140404080003031103031111111115040415151515150404",
"140407151103110300000303030308080415151515150404",
"140415081103030311030303030303150415151515150404",
"140715030303031111111111030303070715151515150404",
"140708030303030311110303111103000015151515150404",
"140707030303030303030303030311000015151515150404",
"140703030303030303030203030300001515151515150404",
"140000030303000300030303030300151515151515150404",
"140400000303030303030002030015151515151515150404",
"140415000000030003030303000015151515151515150404",
"140415151500000000000000151515151515151515150404",
"140415151515151515151515151515151513131515150404",
"140415151515151515151515151515151513121315150404",
"141313131313131313131313131313131313121213150404",
"141312121212121212121212121212121212121212130404",
"141313131313131313131313131313131313121213150404",
"140415151515151515151515151515151513121315150404",
"140415151515151515151515151515151513131515150404",
"140404040404040404040404040404040404040404040404",
"141404040404040404040404040404040404040404040414"
};
