/* XPM */
static char *Pixmap[] = {
"24 24 16 2",
"00 c black",
"01 c #800000",
"02 c #008000",
"03 c #808000",
"04 c #000080",
"05 c #800080",
"06 c #008080",
"07 c #C0C0C0",
"08 c #808080",
"09 c red",
"10 c green",
"11 c yellow",
"12 c blue",
"13 c magenta",
"14 c cyan",
"15 c Gray100",
"050500000000000000050505050505050505050505050505",
"050500151515151500040404040404040404040404040405",
"050400151414141500151515151515151515151515150404",
"050400151414141500151515151515151515151515150404",
"050400150808080800040404040404040807151515150404",
"050400000000000000001212121212121204151515150404",
"000000151507070700000000080808080404081515150404",
"001515070707070707080004080808080012081515150404",
"001508080808080808080012121212121212081515150404",
"000000000000000000000012121212121212081515150404",
"050415150000000000000412121212121212081515150404",
"050415150000000000000412121212121212081515150404",
"050415150000000000000412121212121212081515150404",
"050415150000000000000412121212121212081515150404",
"050415150000000000000412121212121212081515150404",
"050415150000000000000412121212121212081515150404",
"050415150000000000000412121212121212081515150404",
"050415150000000000000004040404040404081515150404",
"050415150008151515000815151515151504081515150404",
"050415150008151515000815151515151500081515150404",
"050415151515151515151515151515151515151515150404",
"050415151515151515151515151515151515151515150404",
"050404040404040404040404040404040404040404040404",
"050504040404040404040404040404040404040404040405"
};
