/* XPM */
static char *Pixmap[] = {
"24 24 16 2",
"00 c black",
"01 c #800000",
"02 c #008000",
"03 c #808000",
"04 c #000080",
"05 c #800080",
"06 c #008080",
"07 c #C0C0C0",
"08 c #808080",
"09 c red",
"10 c green",
"11 c yellow",
"12 c blue",
"13 c magenta",
"14 c cyan",
"15 c Gray100",
"050505050505050505050505050505050505050505050505",
"050504040404040404040408070404040404040404040405",
"050415151515151515150807080715151515151515150404",
"050415151515150707000707070807151515151515150404",
"050415151515080606080603071508071515151515150404",
"050415151500080808080814060807080715151515150404",
"050415150814070707071507070607070807151515150404",
"050415070607081415071507070703071503071515150404",
"050415070607071507070707070708081515080715150404",
"050415080607070707070708080706031507070807150404",
"050408080615070707070706080808080811151508070404",
"050807070014070707070804080704030715080707080704",
"050708070300070707070707080008150703070807070304",
"050407080702000603080205020801150807081115080404",
"050415070807010200000000050808080711070708150404",
"050415150708151508080800070308030815070815150404",
"050415151507080715070707070703080808081515150404",
"050415151515070807071115030708080808081515150404",
"050415151515150708150708070807070108080815150404",
"050415151515151507081507080707031503010807150404",
"050415151515151515070315070703151507080807150404",
"050415151515151515150708070315151515151515150404",
"050404040404040404040407080404040404040404040404",
"050504040404040404040404040404040404040404040405"
};
