/* XPM */
static char *Pixmap[] = {
"24 24 16 2",
"00 c black",
"01 c #800000",
"02 c #008000",
"03 c #808000",
"04 c #000080",
"05 c #800080",
"06 c #008080",
"07 c #C0C0C0",
"08 c #808080",
"09 c red",
"10 c green",
"11 c yellow",
"12 c blue",
"13 c magenta",
"14 c cyan",
"15 c Gray100",
"121212120700121212121212121212121212121212121212",
"121204040408040404040404040404040404040404040412",
"120415151500001515151515001515151515151515150404",
"120415151515081515000011110515151515151515150404",
"120415151515000011110111030015151515151515150404",
"120415151515001111110011111115151515151515150404",
"120415151515151109111100111100151515151515150404",
"120415151515150311111111091111151515151515150404",
"120415151515150011110911001500001515151515150404",
"120415151515151511110807071407111515151515150404",
"120415151515151500071414070011110015151515150404",
"120415151515151515000700111100070315151515150404",
"120415151515151515031111040711030015151515150404",
"120415151515151515000007110301001100151515150404",
"120415151515151515151100000711110711151515150404",
"120415151515151515150003110107110000001515150404",
"120415151515151515151505071111070411111515150404",
"120415151515151515151503110311111103110015150404",
"120415151515151515151500111109001109110015150404",
"120415151515151515151515111111031100110815150404",
"120415151515151515151515001111001111001515150404",
"120415151515151515151515151109111100151515150404",
"120404040404040404040404040407080404040404040404",
"121204040404040404040404040404040404040404040412"
};
