/* XPM */
static char *Pixmap[] = {
"24 24 16 2",
"00 c black",
"01 c #800000",
"02 c #008000",
"03 c #808000",
"04 c #000080",
"05 c #800080",
"06 c #008080",
"07 c #808080",
"08 c #C0C0C0",
"09 c red",
"10 c green",
"11 c yellow",
"12 c blue",
"13 c magenta",
"14 c cyan",
"15 c Gray100",
"131313131313131313131313131313131313131313131313",
"131304040404040404040404040404000404040404040413",
"130015151515151515151515150004040415151515150404",
"130404000015000003030000000807040415151515150404",
"130404080003031103031111111115040415151515150404",
"130407151103110300000303030308080415151515150404",
"130415081103030311030303030303150415151515150404",
"130701010303030101111101010101010715150101010104",
"130701010303030101110301011103010115150101150404",
"130701010303030101030301010311010115010115150404",
"130701010103010101030201010300010115010101010404",
"130001010103010101030301010300010115011515010104",
"130401010101030101030001010015010115151515010104",
"130401010001030101030301010015010115151515010104",
"130401011501000101000001011515010115010115010104",
"130401011501150101151501010101011515150101010404",
"130415151515151515151515151515151515151515150404",
"130415151515151515151515151515151515151515150404",
"130415151515151515151515151515151515151515150404",
"130415151515151515151515151515151515151515150404",
"130415151515151515151515151515151515151515150404",
"130415151515151515151515151515151515151515150404",
"130404040404040404040404040404040404040404040404",
"131304040404040404040404040404040404040404040413"
};
