/* XPM */
static char *Pixmap[] = {
"24 24 16 2",
"00 c black",
"01 c #800000",
"02 c #008000",
"03 c none",
"04 c #000080",
"05 c #800080",
"06 c #008080",
"07 c #C0C0C0",
"08 c #808080",
"09 c red",
"10 c green",
"11 c yellow",
"12 c blue",
"13 c magenta",
"14 c cyan",
"15 c Gray100",
"030303030303030303030303030303030303030303030303",
"030304040404040404040404040404040404040404040403",
"030415151515151515151515151515151515151515150404",
"030415151515151515151515151515151515151515150404",
"030415151515151515000000000015151515151515150404",
"030415151515150000090909090900001515151515150404",
"030415151515000909071512150709090015151515150404",
"030415151500090915151512151515090900151515150404",
"030415151500091512151515151512150900151515150404",
"030415150009071515151515151515150709001515150404",
"030415150009151515151515151515151509001515150404",
"030415150009151215151509000000001509001515150404",
"030415150009151515150015151515151509001515150404",
"030415150009071515001515151515150709001515150404",
"030415151500091515151515151512150900151515150404",
"030415151500090915151512151515090900151515150404",
"030415151515000909071515150709090015151515150404",
"030415151515150000090909090900001515151515150404",
"030415151515151515000000000015151515151515150404",
"030415151515151515151515151515151515151515150404",
"030415151515151515151515151515151515151515150404",
"030415151515151515151515151515151515151515150404",
"030404040404040404040404040404040404040404040404",
"030304040404040404040404040404040404040404040403"
};
