/* XPM */
static char *Pixmap[] = {
"24 24 16 2",
"00 c black",
"01 c #800000",
"02 c #008000",
"03 c #808000",
"04 c #000080",
"05 c none",
"06 c #008080",
"07 c #C0C0C0",
"08 c #808080",
"09 c red",
"10 c green",
"11 c yellow",
"12 c blue",
"13 c magenta",
"14 c cyan",
"15 c Gray100",
"050505050505050505050505050505050505050505050505",
"050504040800080008000800080000040404040404040405",
"050415150808080808070808080808081515151515150404",
"050415070807071115071107070308081515151515150404",
"050415080811071107111511070308081515151515080804",
"050415030711150711151115000708081515151504060404",
"050408070707110707111503080808081515150406120804",
"050708111115110711151108070808081507081206080404",
"050808070711151115110808070708080804061206150404",
"050307111511070711070307070808001212120608150404",
"050808000800080308040815070804120606120715150404",
"050415000707070707070715040412121212061515150404",
"050415080715151515150704121412141204071515150404",
"050415000707070807080412061412120015151515150404",
"050415070808080808000612121212040815151515150404",
"050415070808080807000804141204081515151515150404",
"050415151515150703000708041208071515150715080804",
"050415151515080311110308000408151507070808070404",
"050415151515080311110308070707070808080715150404",
"050415151515030303110307070708080807151515150404",
"050415151507030303000808080808071515151515150404",
"050415151500080808080807070715151515151515150404",
"050404040708080807070404040404040404040404040404",
"050504040404040404040404040404040404040404040405"
};
