/* XPM */
static char *Pixmap[] = {
"24 24 16 2",
"00 c black",
"01 c #800000",
"02 c #008000",
"03 c #808000",
"04 c #000080",
"05 c #800080",
"06 c #008080",
"07 c #808080",
"08 c #C0C0C0",
"09 c red",
"10 c green",
"11 c yellow",
"12 c blue",
"13 c magenta",
"14 c cyan",
"15 c Gray100",
"131313131313131313131313131313131313131313131313",
"131304040404040404040404040404000404040404040413",
"130015151515151515151515150004040415151515150404",
"130404000015000003030000000807040415151515150404",
"130404080003031103031111111115040415151515150404",
"130407151103110101000303030308080415151515150404",
"130415010101010301010303010101150415151515150404",
"130701030303010111011111010303070715151515150404",
"130701030303010111010301111103000015151515150404",
"130701030303030103010103030301010101010115010104",
"130703010103010303010103030100001501151515010404",
"130000030301010300010103030101010101151515010404",
"130400000303010303010001030115151501151515010404",
"130401000000010003010301000115151501151515010404",
"130401151501010000010000010101151501151501010404",
"130415010101151501011515010101010101010115010404",
"130415151501151515151515151515151515151515010404",
"130415150101151515151515151515151501151515010404",
"130415151515151515151515151515151501010101150404",
"130415151515151515151515151515151515151515150404",
"130415151515151515151515151515151515151515150404",
"130415151515151515151515151515151515151515150404",
"130404040404040404040404040404040404040404040404",
"131304040404040404040404040404040404040404040413"
};
