/* XPM */
static char *Pixmap[] = {
"24 24 16 2",
"00 c black",
"01 c #800000",
"02 c #008000",
"03 c #808000",
"04 c #000080",
"05 c #800080",
"06 c #008080",
"07 c #808080",
"08 c #C0C0C0",
"09 c red",
"10 c green",
"11 c yellow",
"12 c blue",
"13 c magenta",
"14 c cyan",
"15 c Gray100",
"030300000000000000030303000003030303030303030303",
"030300151515151500040404000700040404040404040403",
"030400151414141500151515151500001515151515150404",
"030400151414141500151515151515000015151515150404",
"030400150707070700151515151515150007151515150404",
"030400000000000000151515151515150000151515150404",
"000000151508080800000015151515150007151515150404",
"001515080808080808070015151515000015151515150404",
"001507070707070707070015151500001515151515150404",
"000000000000000000000015150015151515151515150404",
"030415151515150000070000000015151515151515150404",
"030415151515151500000700071515151515151515150404",
"030415151515151515080700151515151515151515150404",
"030415151515151515081500151515151515151515150404",
"031215151515121515121212121515150012121212120404",
"031215151515121515120015151215000812081515151204",
"031215151515121515121515151512150812080015151204",
"031215151515121500121515151512070012000715151204",
"031215151515120000121515151512080812121212120404",
"031215151515120715121515151512150012071515150404",
"031215151515120000121515151512151512151515150404",
"031215151515121500121515151215150012081515150404",
"030412121212040404121212120404000012040404040404",
"030304040404040404000007000000070404040404040403"
};
