/* XPM */
static char *Pixmap[] = {
"24 24 16 2",
"00 c black",
"01 c #800000",
"02 c #008000",
"03 c #808000",
"04 c #000080",
"05 c #800080",
"06 c #008080",
"07 c #808080",
"08 c #C0C0C0",
"09 c red",
"10 c green",
"11 c yellow",
"12 c blue",
"13 c magenta",
"14 c cyan",
"15 c Gray100",
"131313131313131313131313131313131313131313131313",
"131304040404040404040401010104000404040404040413",
"130015151515151515150101010104040415151515150404",
"130404000015000001010101010107040415151515150404",
"130404080003030101010101010115040415151515150404",
"130407151103010101010101010108080415151515150404",
"130415081103090911030909090903150415151515150404",
"130715030303091111110909090903070715151515150404",
"130708030303030311110909090903000015151515150404",
"130707030303030303030909090911000015151515150404",
"130703030303030303030909090900001515151515150404",
"130000030303000300030909090900151515151515150404",
"130400000303030303030909090915151515151515150404",
"130415000000030003030808080815151515151515150404",
"130415151500000000000909090915151515151515150404",
"130415151515151515150909090915151515151515150404",
"130415151515151515150909090915151515151515150404",
"130415151515151515150909090915151515151515150404",
"130415151515151515150101010115151515151515150404",
"130415151515151515150101010115151515151515150404",
"130415151515010101010101010101010101151515150404",
"130415151515010101010101010101010101151515150404",
"130404040404010101010101010101010101040404040404",
"131304040404040404040404040404040404040404040413"
};
