/* XPM */
static char *Pixmap[] = {
"24 24 16 2",
"00 c black",
"01 c #800000",
"02 c #008000",
"03 c #808000",
"04 c #000080",
"05 c #800080",
"06 c #008080",
"07 c #808080",
"08 c #C0C0C0",
"09 c red",
"10 c green",
"11 c yellow",
"12 c blue",
"13 c magenta",
"14 c cyan",
"15 c Gray100",
"030303030303000000030303000003030303030303030303",
"030304040400070000040404000700040404040404040403",
"030415150000151515151515151500001515151515150404",
"030415150715151515151515151515000015151515150404",
"030415001515151515151515151515150007151515150404",
"030415001515151515151515151515150000151515150404",
"030415001515151515151515151515150007151515150404",
"030415150015151515151515151515000015151515150404",
"030415150000151515151515151500001515151515150404",
"030415151515000015151515150015151515151515150404",
"030415151515150000070000000015151515151515150404",
"030415151515151500000700071515151515151515150404",
"030415151515151515080700151515151515151515150404",
"030415151515151515081500151515151515151515150404",
"030415151515151515000715151515150007001515150404",
"030415151515151515000015151515000807081515150404",
"030415151515151515001515151500150807080015150404",
"030415151515151500151515151507070015000715150404",
"030415151515150000151515151500080807080015150404",
"030415151515150715151515151515150000071515150404",
"030415151515150000151515151515151500151515150404",
"030415151515151500151515151515150007081515150404",
"030404040404040404000404040404000004040404040404",
"030304040404040404000007000000070404040404040403"
};
