/* XPM */
static char *Pixmap[] = {
"24 24 16 2",
"00 c black",
"01 c #800000",
"02 c #008000",
"03 c #808000",
"04 c #000080",
"05 c none",
"06 c #008080",
"07 c #C0C0C0",
"08 c #808080",
"09 c red",
"10 c green",
"11 c yellow",
"12 c blue",
"13 c magenta",
"14 c cyan",
"15 c Gray100",
"050500000000000000050505050505050505050505050505",
"050500151515151500040404040404040404040404040405",
"050400151414141500151515151515151515151515150404",
"050400151414141500151515151515151515151515150404",
"050400150808080800070707070707070707070715150404",
"050400000000000000000000000000000000000815150404",
"000000151507070700000000000000000000000815150404",
"001515070707070707080000000000000000000815150404",
"001508080808080808080010000000000000000815150404",
"000000000000000000000000000000000000000815150404",
"050415150700101010101010101010000000000815150404",
"050415150700000000000000000000000000000815150404",
"050415150700101000001010000010100010000815150404",
"050415150700000000000000000000000000000815150404",
"050415150700001010000010100000101010000815150404",
"050415150700000000000000000000000000000815150404",
"050415150700001000100010001000100010000815150404",
"050415150700000000000000000000000000000815150404",
"050415150700000000000000000000000000000815150404",
"050415150708080808080808080808080808080815150404",
"050415151515151515151515151515151515151515150404",
"050415151515151515151515151515151515151515150404",
"050404040404040404040404040404040404040404040404",
"050504040404040404040404040404040404040404040405"
};
