/* XPM */
static char *Pixmap[] = {
"24 24 16 2",
"00 c black",
"01 c #800000",
"02 c #008000",
"03 c none",
"04 c #000080",
"05 c #800080",
"06 c #008080",
"07 c #C0C0C0",
"08 c #808080",
"09 c red",
"10 c green",
"11 c yellow",
"12 c blue",
"13 c magenta",
"14 c cyan",
"15 c Gray100",
"030303030303030303030303030303030303030303030303",
"030304040404040404040404040404040404040404040403",
"030415151515151515151515151515151515151515150404",
"030415151515151515151515151515151515151515150404",
"030415151515151515151515151515151515151515150404",
"030415151515151515151515151515151515151515150404",
"030415151515151515151515151515151515151515150404",
"030415151515151515151515151515151515151515150404",
"030415151515151515151515151515151515151515150404",
"030415151515151515151515150000000000001515150404",
"030415151515151515151515001515151515150015150404",
"030415151515151515151500151515151515001500150404",
"030415151515151515150015151515151500151515000404",
"030415151515151515150015151515150015151515000404",
"030415151515151515150015151515001515151515000404",
"030415151515151515150015151515150015151515000404",
"030415151515151515150015151515151500151515000404",
"030415151515151515150015151515151515151515000404",
"030415151515151515151500151515151515151500150404",
"030415151515151515151515001515151515150015150404",
"030415151515151515151515150000000000001515150404",
"030415151515151515151515151515151515151515150404",
"030404040404040404040404040404040404040404040404",
"030304040404040404040404040404040404040404040403"
};
