/* XPM */
static char *Pixmap[] = {
"24 24 16 2",
"00 c black",
"01 c #800000",
"02 c #008000",
"03 c #808000",
"04 c #000080",
"05 c #800080",
"06 c #008080",
"07 c #C0C0C0",
"08 c #808080",
"09 c red",
"10 c green",
"11 c yellow",
"12 c blue",
"13 c magenta",
"14 c cyan",
"15 c Gray100",
"050505050505000000000000000000000005050505050505",
"050504040404000009090909090909090004040404040405",
"050415151515150000000000000000000015151515150404",
"050415151515151500000000000000001515151515150404",
"050415151515151500000000000000001515151515150404",
"050415151515151500000015150000001515151515150404",
"050415151515151500001515151500001515151515150404",
"050415151515150000000015150000000015151515150404",
"050415151515150009000000000000090015151515150404",
"050415151515151500090909090909001515151515150404",
"050415151515150000000000000000000015151515150404",
"050415151515150009090909090909090015151515150404",
"050415151515151500090909090909001515151515150404",
"050415151515151500000000110300001515151515150404",
"050415151515151500000000110000001515151515150404",
"050415151515151500000000030000001515151515150404",
"050415151515151500000000000000001515151515150404",
"050415151515151500000000000000001515151515150404",
"050415151515151500000011000000001515151515150404",
"050415151515151500001111000000001515151515150404",
"050415151515151500001111000000001515151515150404",
"050415151515151500090909090909001515151515150404",
"050404040404040400090909090909000404040404040404",
"050504040404040009000000000000090004040404040405"
};
