/* XPM */
static char *Pixmap[] = {
"24 24 16 2",
"00 c black",
"01 c #800000",
"02 c #008000",
"03 c #808000",
"04 c #000080",
"05 c #800080",
"06 c #008080",
"07 c #808080",
"08 c #C0C0C0",
"09 c red",
"10 c green",
"11 c yellow",
"12 c blue",
"13 c magenta",
"14 c cyan",
"15 c Gray100",
"030303030303030303030303030303030303030303030303",
"030304040404040404040404040404040404040404040403",
"030415151515151515151515151515151515151515150404",
"030400151515001515000015150000000015000000150404",
"030400151515001500151500150015151515001515000404",
"030400151515001500151515150015151515001515000404",
"030400151515001515000015150000001515000000150404",
"030400151515001515151500150015151515001500150404",
"030400151515001500151500150015151515001515000404",
"030415000000151515000015150000000015001515000404",
"030415151515151515151515151515151515151515150404",
"030415151515151515151515151515151515151515150404",
"030415151515151515151515151515151515151515150404",
"030415151515151515151515151515151515151515150404",
"030415150015151515151500151515151515001515150404",
"030400150015001515001500150015150015001500150404",
"030415000000151515150000001515151500000015150404",
"030415000000151515150000001515151500000015150404",
"030400150015001515001500150015150015001500150404",
"030415150015151515151500151515151515001515150404",
"030415151515151515151515151515151515151515150404",
"030415151515151515151515151515151515151515150404",
"030404040404040404040404040404040404040404040404",
"030304040404040404040404040404040404040404040403"
};
